# Blender 4.3.2
# www.blender.org
o Ring
v 0.449380 0.000000 0.000000
v 0.320986 0.000000 0.000000
v 0.445535 0.000000 -0.058656
v 0.318239 0.000000 -0.041897
v 0.434068 0.000000 -0.116308
v 0.310048 0.000000 -0.083077
v 0.415173 0.000000 -0.171970
v 0.296552 0.000000 -0.122836
v 0.389174 0.000000 -0.224690
v 0.277982 0.000000 -0.160493
v 0.356517 0.000000 -0.273565
v 0.254655 0.000000 -0.195404
v 0.317759 0.000000 -0.317760
v 0.226971 0.000000 -0.226971
v 0.273565 0.000000 -0.356517
v 0.195404 0.000000 -0.254655
v 0.224690 0.000000 -0.389174
v 0.160493 0.000000 -0.277982
v 0.171970 0.000000 -0.415173
v 0.122836 0.000000 -0.296552
v 0.116308 0.000000 -0.434068
v 0.083077 0.000000 -0.310048
v 0.058656 0.000000 -0.445535
v 0.041897 0.000000 -0.318239
v 0.000000 0.000000 -0.449380
v 0.000000 0.000000 -0.320986
v -0.058656 0.000000 -0.445535
v -0.041897 0.000000 -0.318239
v -0.116308 0.000000 -0.434068
v -0.083077 0.000000 -0.310048
v -0.171970 0.000000 -0.415173
v -0.122836 0.000000 -0.296552
v -0.224690 0.000000 -0.389174
v -0.160493 0.000000 -0.277982
v -0.273565 0.000000 -0.356517
v -0.195404 0.000000 -0.254655
v -0.317760 0.000000 -0.317759
v -0.226971 0.000000 -0.226971
v -0.356517 0.000000 -0.273565
v -0.254655 0.000000 -0.195404
v -0.389174 0.000000 -0.224690
v -0.277982 0.000000 -0.160493
v -0.415173 0.000000 -0.171970
v -0.296552 0.000000 -0.122836
v -0.434068 0.000000 -0.116308
v -0.310048 0.000000 -0.083077
v -0.445535 0.000000 -0.058656
v -0.318239 0.000000 -0.041897
v -0.449380 0.000000 -0.000000
v -0.320986 0.000000 -0.000000
v -0.445535 0.000000 0.058656
v -0.318239 0.000000 0.041897
v -0.434068 0.000000 0.116308
v -0.310048 0.000000 0.083077
v -0.415173 0.000000 0.171970
v -0.296552 0.000000 0.122836
v -0.389174 0.000000 0.224690
v -0.277982 0.000000 0.160493
v -0.356517 0.000000 0.273565
v -0.254655 0.000000 0.195404
v -0.317760 0.000000 0.317759
v -0.226971 0.000000 0.226971
v -0.273565 0.000000 0.356517
v -0.195404 0.000000 0.254655
v -0.224690 0.000000 0.389174
v -0.160493 0.000000 0.277982
v -0.171970 0.000000 0.415173
v -0.122836 0.000000 0.296552
v -0.116308 0.000000 0.434067
v -0.083077 0.000000 0.310048
v -0.058656 0.000000 0.445535
v -0.041897 0.000000 0.318239
v 0.000000 0.000000 0.449380
v 0.000000 0.000000 0.320986
v 0.058656 0.000000 0.445535
v 0.041897 0.000000 0.318239
v 0.116308 0.000000 0.434068
v 0.083077 0.000000 0.310048
v 0.171970 0.000000 0.415173
v 0.122836 0.000000 0.296552
v 0.224690 0.000000 0.389174
v 0.160493 0.000000 0.277982
v 0.273565 0.000000 0.356517
v 0.195404 0.000000 0.254655
v 0.317759 0.000000 0.317760
v 0.226971 0.000000 0.226971
v 0.356517 0.000000 0.273565
v 0.254655 0.000000 0.195404
v 0.389174 0.000000 0.224690
v 0.277982 0.000000 0.160493
v 0.415173 0.000000 0.171970
v 0.296552 0.000000 0.122836
v 0.434068 0.000000 0.116308
v 0.310048 0.000000 0.083077
v 0.445535 0.000000 0.058656
v 0.318239 0.000000 0.041897
vn -0.0000 1.0000 -0.0000
vt 0.500000 0.666667
vt 0.520833 0.666667
vt 0.520833 0.833333
vt 0.500000 0.833333
vt 0.541667 0.666667
vt 0.541667 0.833333
vt 0.562500 0.666667
vt 0.562500 0.833333
vt 0.583333 0.666667
vt 0.583333 0.833333
vt 0.604167 0.666667
vt 0.604167 0.833333
vt 0.625000 0.666667
vt 0.625000 0.833333
vt 0.645833 0.666667
vt 0.645833 0.833333
vt 0.666667 0.666667
vt 0.666667 0.833333
vt 0.687500 0.666667
vt 0.687500 0.833333
vt 0.708333 0.666667
vt 0.708333 0.833333
vt 0.729167 0.666667
vt 0.729167 0.833333
vt 0.750000 0.666667
vt 0.750000 0.833333
vt 0.770833 0.666667
vt 0.770833 0.833333
vt 0.791667 0.666667
vt 0.791667 0.833333
vt 0.812500 0.666667
vt 0.812500 0.833333
vt 0.833333 0.666667
vt 0.833333 0.833333
vt 0.854167 0.666667
vt 0.854167 0.833333
vt 0.875000 0.666667
vt 0.875000 0.833333
vt 0.895833 0.666667
vt 0.895833 0.833333
vt 0.916667 0.666667
vt 0.916667 0.833333
vt 0.937500 0.666667
vt 0.937500 0.833333
vt 0.958333 0.666667
vt 0.958333 0.833333
vt 0.979167 0.666667
vt 0.979167 0.833333
vt 1.000000 0.666667
vt 1.000000 0.833333
vt 0.000000 0.666667
vt 0.020833 0.666667
vt 0.020833 0.833333
vt 0.000000 0.833333
vt 0.041667 0.666667
vt 0.041667 0.833333
vt 0.062500 0.666667
vt 0.062500 0.833333
vt 0.083333 0.666667
vt 0.083333 0.833333
vt 0.104167 0.666667
vt 0.104167 0.833333
vt 0.125000 0.666667
vt 0.125000 0.833333
vt 0.145833 0.666667
vt 0.145833 0.833333
vt 0.166667 0.666667
vt 0.166667 0.833333
vt 0.187500 0.666667
vt 0.187500 0.833333
vt 0.208333 0.666667
vt 0.208333 0.833333
vt 0.229167 0.666667
vt 0.229167 0.833333
vt 0.250000 0.666667
vt 0.250000 0.833333
vt 0.270833 0.666667
vt 0.270833 0.833333
vt 0.291667 0.666667
vt 0.291667 0.833333
vt 0.312500 0.666667
vt 0.312500 0.833333
vt 0.333333 0.666667
vt 0.333333 0.833333
vt 0.354167 0.666667
vt 0.354167 0.833333
vt 0.375000 0.666667
vt 0.375000 0.833333
vt 0.395833 0.666667
vt 0.395833 0.833333
vt 0.416667 0.666667
vt 0.416667 0.833333
vt 0.437500 0.666667
vt 0.437500 0.833333
vt 0.458333 0.666667
vt 0.458333 0.833333
vt 0.479167 0.666667
vt 0.479167 0.833333
s 0
f 1/1/1 3/2/1 4/3/1 2/4/1
f 3/2/1 5/5/1 6/6/1 4/3/1
f 5/5/1 7/7/1 8/8/1 6/6/1
f 7/7/1 9/9/1 10/10/1 8/8/1
f 9/9/1 11/11/1 12/12/1 10/10/1
f 11/11/1 13/13/1 14/14/1 12/12/1
f 13/13/1 15/15/1 16/16/1 14/14/1
f 15/15/1 17/17/1 18/18/1 16/16/1
f 17/17/1 19/19/1 20/20/1 18/18/1
f 19/19/1 21/21/1 22/22/1 20/20/1
f 21/21/1 23/23/1 24/24/1 22/22/1
f 23/23/1 25/25/1 26/26/1 24/24/1
f 25/25/1 27/27/1 28/28/1 26/26/1
f 27/27/1 29/29/1 30/30/1 28/28/1
f 29/29/1 31/31/1 32/32/1 30/30/1
f 31/31/1 33/33/1 34/34/1 32/32/1
f 33/33/1 35/35/1 36/36/1 34/34/1
f 35/35/1 37/37/1 38/38/1 36/36/1
f 37/37/1 39/39/1 40/40/1 38/38/1
f 39/39/1 41/41/1 42/42/1 40/40/1
f 41/41/1 43/43/1 44/44/1 42/42/1
f 43/43/1 45/45/1 46/46/1 44/44/1
f 45/45/1 47/47/1 48/48/1 46/46/1
f 47/47/1 49/49/1 50/50/1 48/48/1
f 49/51/1 51/52/1 52/53/1 50/54/1
f 51/52/1 53/55/1 54/56/1 52/53/1
f 53/55/1 55/57/1 56/58/1 54/56/1
f 55/57/1 57/59/1 58/60/1 56/58/1
f 57/59/1 59/61/1 60/62/1 58/60/1
f 59/61/1 61/63/1 62/64/1 60/62/1
f 61/63/1 63/65/1 64/66/1 62/64/1
f 63/65/1 65/67/1 66/68/1 64/66/1
f 65/67/1 67/69/1 68/70/1 66/68/1
f 67/69/1 69/71/1 70/72/1 68/70/1
f 69/71/1 71/73/1 72/74/1 70/72/1
f 71/73/1 73/75/1 74/76/1 72/74/1
f 73/75/1 75/77/1 76/78/1 74/76/1
f 75/77/1 77/79/1 78/80/1 76/78/1
f 77/79/1 79/81/1 80/82/1 78/80/1
f 79/81/1 81/83/1 82/84/1 80/82/1
f 81/83/1 83/85/1 84/86/1 82/84/1
f 83/85/1 85/87/1 86/88/1 84/86/1
f 85/87/1 87/89/1 88/90/1 86/88/1
f 87/89/1 89/91/1 90/92/1 88/90/1
f 89/91/1 91/93/1 92/94/1 90/92/1
f 91/93/1 93/95/1 94/96/1 92/94/1
f 93/95/1 95/97/1 96/98/1 94/96/1
f 95/97/1 1/1/1 2/4/1 96/98/1
