# Blender 4.3.2
# www.blender.org
mtllib blast.mtl
o ExplosionCylinder
v 0.000000 0.000000 -0.450000
v 0.000000 1.000000 -0.450000
v 0.225000 0.000000 -0.389711
v 0.225000 1.808786 -0.389711
v 0.389711 0.000000 -0.225000
v 0.389711 1.000000 -0.225000
v 0.450000 0.000000 0.000000
v 0.450000 1.511787 0.000000
v 0.389711 0.000000 0.225000
v 0.389711 1.000000 0.225000
v 0.225000 0.000000 0.389711
v 0.225000 1.808786 0.389711
v 0.000000 0.000000 0.450000
v 0.000000 1.000000 0.450000
v -0.225000 0.000000 0.389711
v -0.225000 1.511787 0.389711
v -0.389711 0.000000 0.225000
v -0.389711 1.000000 0.225000
v -0.450000 0.000000 0.000000
v -0.450000 1.808786 0.000000
v -0.389711 0.000000 -0.225000
v -0.389711 1.000000 -0.225000
v -0.225000 0.000000 -0.389711
v -0.225000 1.511787 -0.389711
v 0.172412 0.701212 -0.298627
v -0.000000 0.701212 -0.344825
v 0.298627 0.701212 -0.172412
v 0.344825 0.701212 0.000000
v 0.298627 0.701212 0.172412
v 0.172412 0.701212 0.298627
v -0.000000 0.701212 0.344825
v -0.172412 0.701212 0.298627
v -0.298627 0.701212 0.172412
v -0.344825 0.701212 0.000000
v -0.298627 0.701212 -0.172412
v -0.172412 0.701212 -0.298627
vn 0.2588 -0.0000 -0.9659
vn 0.7071 -0.0000 -0.7071
vn 0.9659 -0.0000 -0.2588
vn 0.9659 -0.0000 0.2588
vn 0.7071 -0.0000 0.7071
vn 0.2588 -0.0000 0.9659
vn -0.2588 -0.0000 0.9659
vn -0.7071 -0.0000 0.7071
vn -0.9659 -0.0000 0.2588
vn -0.9659 -0.0000 -0.2588
vn -0.9837 0.1758 -0.0372
vn -0.7071 -0.0000 -0.7071
vn -0.2588 -0.0000 -0.9659
vn -0.0000 1.0000 -0.0000
vn 0.4596 0.1758 0.8705
vn -0.5080 0.1377 0.8503
vn -0.9837 0.1758 0.0372
vn 0.5241 0.1758 0.8333
vn -0.4824 0.1377 0.8651
vn 0.9904 0.1377 -0.0148
vn 0.9904 0.1377 0.0148
vn 0.5241 0.1758 -0.8333
vn 0.4596 0.1758 -0.8705
vn -0.5080 0.1377 -0.8503
vn -0.4824 0.1377 -0.8651
vt 1.000000 0.500000
vt 1.000000 1.000000
vt 0.916667 1.000000
vt 0.916667 0.500000
vt 0.833333 1.000000
vt 0.833333 0.500000
vt 0.750000 1.000000
vt 0.750000 0.500000
vt 0.666667 1.000000
vt 0.666667 0.500000
vt 0.583333 1.000000
vt 0.583333 0.500000
vt 0.500000 1.000000
vt 0.500000 0.500000
vt 0.416667 1.000000
vt 0.416667 0.500000
vt 0.333333 1.000000
vt 0.333333 0.500000
vt 0.250000 1.000000
vt 0.250000 0.500000
vt 0.166667 1.000000
vt 0.166667 0.500000
vt 0.083333 1.000000
vt 0.083333 0.500000
vt 0.000000 1.000000
vt 0.000000 0.500000
vt 0.370000 0.457846
vt 0.250000 0.490000
vt 0.130000 0.457846
vt 0.042154 0.370000
vt 0.010000 0.250000
vt 0.042154 0.130000
vt 0.130000 0.042154
vt 0.250000 0.010000
vt 0.370000 0.042154
vt 0.457846 0.130000
vt 0.490000 0.250000
vt 0.457846 0.370000
s 0
f 1/1/1 2/2/1 4/3/1 3/4/1
f 3/4/2 4/3/2 6/5/2 5/6/2
f 5/6/3 6/5/3 8/7/3 7/8/3
f 7/8/4 8/7/4 10/9/4 9/10/4
f 9/10/5 10/9/5 12/11/5 11/12/5
f 11/12/6 12/11/6 14/13/6 13/14/6
f 13/14/7 14/13/7 16/15/7 15/16/7
f 15/16/8 16/15/8 18/17/8 17/18/8
f 17/18/9 18/17/9 20/19/9 19/20/9
f 19/20/10 20/19/10 22/21/10 21/22/10
f 10/9/11 8/7/11 28/7/11 29/9/11
f 21/22/12 22/21/12 24/23/12 23/24/12
f 23/24/13 24/23/13 2/25/13 1/26/13
f 25/27/14 26/28/14 36/29/14 35/30/14 34/31/14 33/32/14 32/33/14 31/34/14 30/35/14 29/36/14 28/37/14 27/38/14
f 2/25/15 24/23/15 36/23/15 26/25/15
f 4/3/16 2/2/16 26/2/16 25/3/16
f 8/7/17 6/5/17 27/5/17 28/7/17
f 24/23/18 22/21/18 35/21/18 36/23/18
f 6/5/19 4/3/19 25/3/19 27/5/19
f 22/21/20 20/19/20 34/19/20 35/21/20
f 20/19/21 18/17/21 33/17/21 34/19/21
f 18/17/22 16/15/22 32/15/22 33/17/22
f 16/15/23 14/13/23 31/13/23 32/15/23
f 14/13/24 12/11/24 30/11/24 31/13/24
f 12/11/25 10/9/25 29/9/25 30/11/25
