# Blender 4.3.2
# www.blender.org
o PowerMeterArrow
v 0.182906 -0.126791 -0.732706
v 0.182906 0.126791 -0.732706
v 1.119248 -0.126791 0.597504
v 1.119248 0.126791 0.597504
v 0.334345 -0.126791 0.598859
v 0.334345 0.126791 0.598859
v 0.322068 -0.126791 1.170310
v 0.322068 0.126791 1.170310
v 0.000000 -0.126791 1.084473
v 0.000000 0.126791 1.084473
v 0.000000 -0.126791 -0.806834
v 0.000000 0.126791 -0.806834
v -0.182906 -0.126791 -0.732706
v -0.182906 0.126791 -0.732706
v -1.119248 -0.126791 0.597504
v -1.119248 0.126791 0.597504
v -0.334345 -0.126791 0.598859
v -0.334345 0.126791 0.598859
v -0.322067 -0.126791 1.170310
v -0.322067 0.126791 1.170310
vn 0.3756 -0.0000 -0.9268
vn 0.8177 -0.0000 -0.5756
vn 0.0017 -0.0000 1.0000
vn 0.9998 -0.0000 0.0215
vn -0.2575 -0.0000 0.9663
vn -0.0000 1.0000 -0.0000
vn -0.0000 -1.0000 -0.0000
vn -0.3756 -0.0000 -0.9268
vn -0.8177 -0.0000 -0.5756
vn -0.0017 -0.0000 1.0000
vn -0.9998 -0.0000 0.0215
vn 0.2575 -0.0000 0.9663
vt 1.000000 0.500000
vt 1.000000 1.000000
vt 0.937500 1.000000
vt 0.937500 0.500000
vt 0.687500 1.000000
vt 0.687500 0.500000
vt 0.625000 1.000000
vt 0.625000 0.500000
vt 0.562500 1.000000
vt 0.562500 0.500000
vt 0.500000 1.000000
vt 0.500000 0.500000
vt 0.341844 0.471731
vt 0.250000 0.490000
vt 0.250000 0.010000
vt 0.341844 0.028269
vt 0.419706 0.080294
vt 0.471731 0.158156
vt 0.750000 0.490000
vt 0.841844 0.471731
vt 0.971731 0.158156
vt 0.919706 0.080294
vt 0.841844 0.028269
vt 0.750000 0.010000
s 0
f 11/1/1 12/2/1 2/3/1 1/4/1
f 2/3/2 4/5/2 3/6/2 1/4/2
f 3/6/3 4/5/3 6/7/3 5/8/3
f 5/8/4 6/7/4 8/9/4 7/10/4
f 7/10/5 8/9/5 10/11/5 9/12/5
f 2/13/6 12/14/6 10/15/6 8/16/6 6/17/6 4/18/6
f 11/19/7 1/20/7 3/21/7 5/22/7 7/23/7 9/24/7
f 11/1/8 13/4/8 14/3/8 12/2/8
f 14/3/9 13/4/9 15/6/9 16/5/9
f 15/6/10 17/8/10 18/7/10 16/5/10
f 17/8/11 19/10/11 20/9/11 18/7/11
f 19/10/12 9/12/12 10/11/12 20/9/12
f 14/13/6 16/18/6 18/17/6 20/16/6 10/15/6 12/14/6
f 11/19/7 9/24/7 19/23/7 17/22/7 15/21/7 13/20/7
