# Blender 4.3.2
# www.blender.org
o PowerMeterBack
v 0.000000 -4.000000 -0.974627
v 0.000000 4.000000 -0.974627
v 0.372974 -4.000000 -0.900438
v 0.372974 4.000000 -0.900438
v 0.689165 -4.000000 -0.689165
v 0.689165 4.000000 -0.689165
v 0.900438 -4.000000 -0.372973
v 0.900438 4.000000 -0.372973
v 0.987512 -2.687500 -0.062784
v 0.987512 2.687500 -0.062784
v -0.987512 -2.687500 -0.062784
v -0.987512 2.687500 -0.062784
v -0.900438 -4.000000 -0.372974
v -0.900438 4.000000 -0.372974
v -0.689165 -4.000000 -0.689165
v -0.689165 4.000000 -0.689165
v -0.372973 -4.000000 -0.900438
v -0.372973 4.000000 -0.900438
v 0.190128 -4.000000 -0.955838
v 0.190128 4.000000 -0.955838
v 1.303960 2.687500 -0.133147
v 1.303960 -2.687500 -0.133147
v 0.541439 -4.000000 -0.810320
v 0.541439 4.000000 -0.810320
v 1.266658 -3.833334 -0.295389
v 0.810320 -4.000000 -0.541439
v 0.810320 4.000000 -0.541439
v 1.079863 4.000000 -0.721542
v 0.957424 -3.833334 -0.198101
v 0.957424 3.833334 -0.198101
v 1.196842 4.000000 -0.504255
v 1.196842 -4.000000 -0.504255
v -0.957424 -3.833334 -0.198101
v -0.957424 3.833334 -0.198101
v 1.079863 -4.000000 -0.721542
v -0.810320 -4.000000 -0.541439
v -0.810320 4.000000 -0.541439
v 0.721542 4.000000 -1.079863
v -0.541439 -4.000000 -0.810320
v -0.541439 4.000000 -0.810320
v 0.918393 4.000000 -0.918393
v -0.190128 -4.000000 -0.955838
v -0.190128 4.000000 -0.955838
v 0.918393 -4.000000 -0.918393
v 0.721542 -4.000000 -1.079863
v -0.000000 4.000000 -1.298803
v 0.253372 4.000000 -1.273786
v 0.497031 4.000000 -1.199938
v 0.497031 -4.000000 -1.199938
v 0.253372 -4.000000 -1.273786
v -0.000000 -4.000000 -1.298803
v 1.266658 3.833334 -0.295389
v -1.303960 2.687500 -0.133147
v -1.303960 -2.687500 -0.133147
v -1.266658 -3.833334 -0.295389
v -1.196842 -4.000000 -0.504255
v -1.196842 4.000000 -0.504255
v -1.266658 3.833334 -0.295389
v -1.079863 -4.000000 -0.721542
v -0.918393 -4.000000 -0.918393
v -0.918393 4.000000 -0.918393
v -1.079863 4.000000 -0.721542
v -0.721542 -4.000000 -1.079863
v -0.497031 -4.000000 -1.199938
v -0.497031 4.000000 -1.199938
v -0.721542 4.000000 -1.079863
v -0.253372 -4.000000 -1.273786
v -0.253372 4.000000 -1.273786
vn -0.1951 -0.0000 0.9808
vn -0.3827 -0.0000 0.9239
vn 0.2374 -0.0661 0.9692
vn 0.2566 -0.1319 0.9575
vn -0.5556 -0.0000 0.8315
vn -0.0000 -0.0000 -1.0000
vn 0.1951 -0.0000 -0.9808
vn -0.7071 -0.0000 0.7071
vn -0.1951 -0.0000 -0.9808
vn -0.8315 -0.0000 0.5556
vn -0.3827 -0.0000 -0.9239
vn -0.9089 -0.0000 0.4170
vn -0.5556 -0.0000 -0.8315
vn -0.9523 -0.0000 0.3053
vn -0.7071 -0.0000 -0.7071
vn -0.9762 -0.0000 0.2171
vn -0.8307 -0.0000 -0.5567
vn 0.9762 -0.0000 0.2171
vn 0.9523 -0.0000 0.3053
vn -0.9087 -0.0000 -0.4173
vn 0.9089 -0.0000 0.4170
vn -0.9503 -0.0000 -0.3114
vn 0.8315 -0.0000 0.5556
vn -0.9746 -0.0000 -0.2241
vn 0.7071 -0.0000 0.7071
vn 0.9503 -0.0000 -0.3114
vn 0.9746 -0.0000 -0.2241
vn 0.5556 -0.0000 0.8315
vn 0.9087 -0.0000 -0.4173
vn 0.3827 -0.0000 0.9239
vn 0.8307 -0.0000 -0.5567
vn 0.1951 -0.0000 0.9808
vn 0.7071 -0.0000 -0.7071
vn -0.0000 -0.0000 1.0000
vn 0.5556 -0.0000 -0.8315
vn 0.3827 -0.0000 -0.9239
vn -0.0000 1.0000 -0.0000
vn -0.0000 -1.0000 -0.0000
vn 0.2566 0.1319 0.9575
vn 0.2374 0.0661 0.9692
vn 0.1195 0.9410 0.3166
vn 0.2248 0.7712 0.5956
vn -0.1195 0.9410 0.3166
vn -0.2374 -0.0661 0.9692
vn -0.2374 0.0661 0.9692
vn -0.2566 -0.1319 0.9575
vn 0.1195 -0.9410 0.3166
vn -0.1195 -0.9410 0.3166
vn -0.2248 -0.7712 0.5956
vn -0.2248 0.7712 0.5956
vn -0.2566 0.1319 0.9575
vn 0.2248 -0.7712 0.5956
vt 0.968750 0.500000
vt 0.937500 0.500000
vt 0.937500 1.000000
vt 0.968750 1.000000
vt 0.750000 0.500000
vt 0.781250 0.500000
vt 0.906250 0.500000
vt 0.906250 1.000000
vt 1.000000 0.500000
vt 1.000000 1.000000
vt 0.875000 0.500000
vt 0.875000 1.000000
vt 0.031250 0.500000
vt 0.031250 1.000000
vt 0.000000 1.000000
vt 0.000000 0.500000
vt 0.843750 0.500000
vt 0.843750 1.000000
vt 0.062500 1.000000
vt 0.062500 0.500000
vt 0.812500 0.500000
vt 0.812500 1.000000
vt 0.093750 0.500000
vt 0.093750 1.000000
vt 0.781250 1.000000
vt 0.125000 1.000000
vt 0.125000 0.500000
vt 0.750000 1.000000
vt 0.156250 0.500000
vt 0.156250 1.000000
vt 0.250000 1.000000
vt 0.250000 0.500000
vt 0.218750 0.500000
vt 0.218750 1.000000
vt 0.187500 1.000000
vt 0.187500 0.500000
s 1
f 19/1/1 3/2/2 4/3/2 20/4/1
f 9/5/3 29/6/4 25/6/4 22/5/3
f 4/3/2 3/2/2 23/7/5 24/8/5
f 51/9/6 46/10/6 47/4/7 50/1/7
f 23/7/5 5/11/8 6/12/8 24/8/5
f 67/13/9 68/14/9 46/15/6 51/16/6
f 6/12/8 5/11/8 26/17/10 27/18/10
f 65/19/11 68/14/9 67/13/9 64/20/11
f 26/17/10 7/21/12 8/22/12 27/18/10
f 63/23/13 66/24/13 65/19/11 64/20/11
f 8/22/12 7/21/12 29/6/14 30/25/14
f 61/26/15 66/24/13 63/23/13 60/27/15
f 29/6/14 9/5/16 10/28/16 30/25/14
f 59/29/17 62/30/17 61/26/15 60/27/15
f 12/31/18 11/32/18 33/33/19 34/34/19
f 57/35/20 62/30/17 59/29/17 56/36/20
f 33/33/19 13/36/21 14/35/21 34/34/19
f 55/33/22 58/34/22 57/35/20 56/36/20
f 14/35/21 13/36/21 36/29/23 37/30/23
f 53/31/24 58/34/22 55/33/22 54/32/24
f 36/29/23 15/27/25 16/26/25 37/30/23
f 25/6/26 52/25/26 21/28/27 22/5/27
f 16/26/25 15/27/25 39/23/28 40/24/28
f 31/22/29 52/25/26 25/6/26 32/21/29
f 39/23/28 17/20/30 18/19/30 40/24/28
f 35/17/31 28/18/31 31/22/29 32/21/29
f 18/19/30 17/20/30 42/13/32 43/14/32
f 41/12/33 28/18/31 35/17/31 44/11/33
f 42/13/32 1/16/34 2/15/34 43/14/32
f 45/7/35 38/8/35 41/12/33 44/11/33
f 50/1/7 47/4/7 48/3/36 49/2/36
f 48/3/36 38/8/35 45/7/35 49/2/36
f 1/9/34 19/1/1 20/4/1 2/10/34
f 43/14/37 2/15/37 46/15/37 68/14/37
f 23/7/38 3/2/38 49/2/38 45/7/38
f 15/27/38 36/29/38 59/29/38 60/27/38
f 30/25/39 10/28/40 21/28/40 52/25/39
f 18/19/37 43/14/37 68/14/37 65/19/37
f 5/11/38 23/7/38 45/7/38 44/11/38
f 37/30/37 16/26/37 61/26/37 62/30/37
f 8/22/41 30/25/42 52/25/42 31/22/41
f 24/8/37 6/12/37 41/12/37 38/8/37
f 14/35/43 37/30/37 62/30/37 57/35/43
f 4/3/37 24/8/37 38/8/37 48/3/37
f 10/28/40 9/5/3 22/5/3 21/28/40
f 39/23/38 15/27/38 60/27/38 63/23/38
f 19/1/38 1/9/38 51/9/38 50/1/38
f 11/32/44 12/31/45 53/31/45 54/32/44
f 26/17/38 5/11/38 44/11/38 35/17/38
f 17/20/38 39/23/38 63/23/38 64/20/38
f 3/2/38 19/1/38 50/1/38 49/2/38
f 33/33/46 11/32/44 54/32/44 55/33/46
f 7/21/47 26/17/38 35/17/38 32/21/47
f 40/24/37 18/19/37 65/19/37 66/24/37
f 20/4/37 4/3/37 48/3/37 47/4/37
f 13/36/48 33/33/49 55/33/49 56/36/48
f 27/18/37 8/22/41 31/22/41 28/18/37
f 16/26/37 40/24/37 66/24/37 61/26/37
f 2/10/37 20/4/37 47/4/37 46/10/37
f 34/34/50 14/35/43 57/35/43 58/34/50
f 6/12/37 27/18/37 28/18/37 41/12/37
f 12/31/45 34/34/51 58/34/51 53/31/45
f 42/13/38 17/20/38 64/20/38 67/13/38
f 29/6/52 7/21/47 32/21/47 25/6/52
f 1/16/38 42/13/38 67/13/38 51/16/38
f 36/29/38 13/36/48 56/36/48 59/29/38
