# Blender 4.3.2
# www.blender.org
o PowerMeterSegment
v -0.000000 -0.978967 -0.990716
v -0.000000 0.978967 -0.990716
v 0.374634 -0.978967 -0.916196
v 0.374634 0.978967 -0.916196
v 0.692234 -0.978967 -0.703983
v 0.692234 0.978967 -0.703983
v 0.904447 -0.978967 -0.386383
v 0.904447 0.978967 -0.386383
v 0.978967 -0.978967 -0.011749
v 0.978967 0.978967 -0.011749
v -0.978967 -0.978967 -0.011749
v -0.978967 0.978967 -0.011749
v -0.904447 -0.978967 -0.386383
v -0.904447 0.978967 -0.386383
v -0.692234 -0.978967 -0.703983
v -0.692234 0.978967 -0.703983
v -0.374634 -0.978967 -0.916196
v -0.374634 0.978967 -0.916196
v -0.000000 -0.978967 -0.860972
v 0.324984 -0.978967 -0.796329
v 0.324984 0.978967 -0.796329
v -0.000000 0.978967 -0.860972
v 0.600491 -0.978967 -0.612240
v 0.600491 0.978967 -0.612240
v 0.784580 -0.978967 -0.336733
v 0.784580 0.978967 -0.336733
v 0.851716 -0.978967 0.013563
v 0.851716 0.978967 0.013563
v -0.851716 0.978967 0.013563
v -0.851716 -0.978967 0.013563
v -0.784580 -0.978967 -0.336733
v -0.784580 0.978967 -0.336733
v -0.600491 -0.978967 -0.612240
v -0.600491 0.978967 -0.612240
v -0.324984 -0.978967 -0.796329
v -0.324984 0.978967 -0.796329
vn -0.0000 -0.0000 -1.0000
vn 0.3827 -0.0000 -0.9239
vn 0.7071 -0.0000 -0.7071
vn 0.9239 -0.0000 -0.3827
vn 0.9808 -0.0000 -0.1951
vn -0.9808 -0.0000 -0.1951
vn -0.9239 -0.0000 -0.3827
vn -0.7071 -0.0000 -0.7071
vn -0.3827 -0.0000 0.9239
vn -0.7071 -0.0000 0.7071
vn -0.3827 -0.0000 -0.9239
vn -0.0000 -0.0000 1.0000
vn -0.9252 -0.0000 0.3795
vn -0.9821 -0.0000 0.1882
vn 0.9821 -0.0000 0.1882
vn 0.9252 -0.0000 0.3795
vn 0.7071 -0.0000 0.7071
vn 0.3827 -0.0000 0.9239
vn -0.0000 1.0000 -0.0000
vn -0.1951 -0.0000 0.9808
vn -0.0000 -1.0000 -0.0000
vn 0.1951 -0.0000 0.9808
vt 1.000000 0.500000
vt 1.000000 1.000000
vt 0.937500 1.000000
vt 0.937500 0.500000
vt 0.875000 1.000000
vt 0.875000 0.500000
vt 0.812500 1.000000
vt 0.812500 0.500000
vt 0.750000 1.000000
vt 0.750000 0.500000
vt 0.250000 0.500000
vt 0.250000 1.000000
vt 0.187500 1.000000
vt 0.187500 0.500000
vt 0.125000 1.000000
vt 0.125000 0.500000
vt 0.062500 1.000000
vt 0.062500 0.500000
vt 0.000000 1.000000
vt 0.000000 0.500000
vt 0.000000 0.000000
s 1
f 1/1/1 2/2/1 4/3/2 3/4/2
f 3/4/2 4/3/2 6/5/3 5/6/3
f 5/6/3 6/5/3 8/7/4 7/8/4
f 7/8/4 8/7/4 10/9/5 9/10/5
f 11/11/6 12/12/6 14/13/7 13/14/7
f 13/14/7 14/13/7 16/15/8 15/16/8
f 20/4/9 23/6/10 24/5/10 21/3/9
f 15/16/8 16/15/8 18/17/11 17/18/11
f 17/18/11 18/17/11 2/19/1 1/20/1
f 19/1/12 20/4/9 21/3/9 22/2/12
f 23/6/10 25/8/13 26/7/13 24/5/10
f 25/8/13 27/10/14 28/9/14 26/7/13
f 30/11/15 31/14/16 32/13/16 29/12/15
f 31/14/16 33/16/17 34/15/17 32/13/16
f 33/16/17 35/18/18 36/17/18 34/15/17
f 35/18/18 19/20/12 22/19/12 36/17/18
f 7/8/19 5/6/19 23/6/19 25/8/19
f 17/18/19 15/16/19 33/16/19 35/18/19
f 3/4/19 1/1/19 19/1/19 20/4/19
f 11/11/20 30/11/20 29/12/20 12/12/20
f 6/5/21 8/7/21 26/7/21 24/5/21
f 16/15/21 18/17/21 36/17/21 34/15/21
f 2/2/21 4/3/21 21/3/21 22/2/21
f 13/14/19 11/11/19 30/11/19 31/14/19
f 12/12/21 14/13/21 32/13/21 29/12/21
f 9/10/19 7/8/19 25/8/19 27/10/19
f 1/20/19 17/18/19 35/18/19 19/20/19
f 8/7/21 10/9/21 28/9/21 26/7/21
f 18/17/21 2/19/21 22/19/21 36/17/21
f 5/6/19 3/4/19 20/4/19 23/6/19
f 15/16/19 13/14/19 31/14/19 33/16/19
f 10/9/22 28/9/22 27/10/22 9/10/22
f 4/3/21 6/5/21 24/5/21 21/3/21
f 14/13/21 16/15/21 34/15/21 32/13/21
s 0
f 18/21/19 4/21/19 2/21/19
f 36/21/19 18/21/19 34/21/19
f 36/21/19 22/21/19 18/21/19
f 22/21/19 4/21/19 18/21/19
f 22/21/19 21/21/19 4/21/19
f 21/21/19 6/21/19 4/21/19
f 17/21/21 1/21/21 3/21/21
f 24/21/19 6/21/19 21/21/19
f 14/21/19 34/21/19 16/21/19
f 24/21/19 8/21/19 6/21/19
f 14/21/19 32/21/19 34/21/19
f 26/21/19 8/21/19 24/21/19
f 12/21/19 32/21/19 14/21/19
f 26/21/19 10/21/19 8/21/19
f 12/21/19 29/21/19 32/21/19
f 28/21/19 10/21/19 26/21/19
f 34/21/19 18/21/19 16/21/19
f 35/21/21 33/21/21 17/21/21
f 35/21/21 17/21/21 19/21/21
f 19/21/21 17/21/21 3/21/21
f 19/21/21 3/21/21 20/21/21
f 20/21/21 3/21/21 5/21/21
f 23/21/21 20/21/21 5/21/21
f 13/21/21 15/21/21 33/21/21
f 23/21/21 5/21/21 7/21/21
f 13/21/21 33/21/21 31/21/21
f 25/21/21 23/21/21 7/21/21
f 11/21/21 13/21/21 31/21/21
f 25/21/21 7/21/21 9/21/21
f 11/21/21 31/21/21 30/21/21
f 27/21/21 25/21/21 9/21/21
f 33/21/21 15/21/21 17/21/21
